<!DOCTYPE svg PUBLIC "-//W3C//DTD SVG 20010904//EN" "http://www.w3.org/TR/2001/REC-SVG-20010904/DTD/svg10.dtd">
<svg version="1.0" xmlns="http://www.w3.org/2000/svg" width="512px" height="512px" viewBox="0 0 5120 5120" preserveAspectRatio="xMidYMid meet">
<g id="layer101" fill="#E3E3E3" stroke="none">
 <path d="M2485 5108 c-11 -6 -22 -14 -25 -18 -3 -4 -27 -19 -55 -34 -27 -15 -78 -44 -112 -64 -66 -39 -198 -115 -248 -142 -16 -10 -84 -47 -150 -85 -66 -37 -183 -102 -260 -144 -77 -42 -154 -86 -170 -98 -47 -32 -84 -53 -91 -52 -4 0 -10 -4 -13 -9 -3 -5 -28 -21 -56 -36 -27 -15 -79 -44 -115 -65 -178 -102 -279 -159 -440 -248 -187 -104 -205 -114 -290 -166 -41 -26 -96 -58 -122 -72 -29 -15 -50 -34 -53 -48 -3 -12 -4 -591 -3 -1287 l3 -1264 55 -33 c30 -18 69 -39 85 -47 33 -16 144 -81 160 -93 25 -21 121 -77 235 -138 69 -38 168 -93 220 -123 52 -31 149 -85 215 -121 66 -36 122 -68 125 -72 3 -3 28 -18 55 -33 63 -34 111 -63 150 -89 17 -12 89 -53 160 -93 160 -88 343 -190 495 -277 63 -36 138 -78 165 -93 28 -15 61 -35 74 -45 30 -24 69 -24 101 -2 13 10 48 32 77 48 85 48 446 251 666 373 67 38 151 88 187 110 36 23 90 56 120 72 30 17 114 64 185 105 72 41 177 100 235 131 58 32 107 60 110 64 3 3 66 38 140 78 74 40 147 83 163 96 15 13 42 30 60 37 17 7 34 16 37 20 3 3 28 18 55 33 28 15 75 42 105 59 l55 33 0 1284 0 1284 -40 23 c-22 12 -47 27 -55 33 -33 23 -152 92 -265 154 -66 36 -131 73 -145 81 -83 49 -371 210 -413 232 -28 14 -56 30 -62 37 -7 6 -31 20 -54 30 -22 11 -41 23 -41 28 0 5 -4 6 -10 3 -5 -3 -10 -2 -10 4 0 5 -9 12 -19 16 -11 3 -37 18 -58 32 -21 15 -96 59 -168 98 -71 40 -184 103 -250 140 -66 38 -172 97 -235 133 -63 35 -144 81 -180 102 -36 21 -83 49 -105 61 -22 12 -54 32 -71 45 -33 26 -77 30 -109 12z m294 -1294 c529 -95 933 -498 1036 -1035 21 -111 21 -327 0 -438 -103 -537 -499 -933 -1036 -1036 -51 -9 -136 -16 -219 -16 -621 0 -1136 432 -1255 1052 -21 111 -21 327 0 438 134 699 787 1158 1474 1035z"/>
 </g>

</svg>