<!DOCTYPE svg PUBLIC "-//W3C//DTD SVG 20010904//EN" "http://www.w3.org/TR/2001/REC-SVG-20010904/DTD/svg10.dtd">
<svg version="1.0" xmlns="http://www.w3.org/2000/svg" width="544px" height="441px" viewBox="0 0 5440 4410" preserveAspectRatio="xMidYMid meet">
<g id="layer101" fill="#BBB" stroke="none">
 <path d="M574 4395 c-253 -56 -457 -240 -542 -490 l-27 -80 -3 -1324 c-2 -1321 -2 -1325 19 -1410 33 -136 88 -231 194 -337 69 -69 108 -100 170 -131 150 -77 148 -76 548 -83 l359 -5 51 -100 c29 -56 61 -123 71 -150 28 -71 122 -161 216 -207 157 -77 100 -73 1090 -73 990 0 933 -4 1090 73 94 46 188 136 216 207 10 27 42 94 71 150 l51 100 359 5 c400 7 398 6 548 83 62 31 101 62 170 131 106 106 161 201 194 337 21 85 21 89 19 1410 l-3 1324 -27 80 c-70 204 -225 372 -416 450 -143 58 -21 55 -2280 54 -1702 -1 -2088 -3 -2138 -14z m2372 -750 c227 -47 424 -150 593 -310 493 -468 504 -1217 27 -1698 -407 -410 -1026 -472 -1507 -152 -444 296 -641 849 -479 1344 130 399 462 707 865 805 160 39 344 43 501 11z"/>
 <path d="M2602 3339 c-87 -10 -236 -58 -312 -101 -249 -141 -406 -377 -441 -665 -45 -371 153 -727 494 -888 127 -61 212 -78 377 -78 118 0 160 4 225 22 425 115 696 510 645 941 -47 412 -357 723 -765 770 -101 11 -119 11 -223 -1z"/>
 </g>

</svg>