<!DOCTYPE svg PUBLIC "-//W3C//DTD SVG 20010904//EN" "http://www.w3.org/TR/2001/REC-SVG-20010904/DTD/svg10.dtd">
<svg version="1.0" xmlns="http://www.w3.org/2000/svg" width="116px" height="116px" viewBox="0 0 1160 1160" preserveAspectRatio="xMidYMid meet">
<g id="layer101" fill="#aeaeae" stroke="none">
 <path d="M430 1146 c-162 -46 -298 -155 -372 -299 -56 -111 -73 -286 -39 -420 33 -128 99 -229 200 -308 106 -82 217 -119 361 -119 144 0 255 37 361 119 101 79 167 180 200 308 34 134 17 309 -39 420 -75 146 -212 255 -377 299 -62 17 -235 17 -295 0z m239 -157 c123 -28 235 -119 293 -236 31 -64 33 -74 33 -173 0 -99 -2 -109 -33 -173 -84 -170 -269 -270 -445 -240 -138 23 -257 113 -319 240 -31 64 -33 74 -33 173 0 99 2 109 33 173 88 180 286 279 471 236z"/>
 <path d="M480 480 l0 -200 50 0 49 0 3 148 3 147 98 3 97 3 0 49 0 50 -150 0 -150 0 0 -200z"/>
 </g>

</svg>