<!DOCTYPE svg PUBLIC "-//W3C//DTD SVG 20010904//EN" "http://www.w3.org/TR/2001/REC-SVG-20010904/DTD/svg10.dtd">
<svg version="1.0" xmlns="http://www.w3.org/2000/svg" width="400px" height="360px" viewBox="0 0 4000 3600" preserveAspectRatio="xMidYMid meet">
<g id="layer101" fill="#b0b0b0" stroke="none">
 <path d="M1735 3340 l-260 -260 -737 0 -738 0 0 -1540 0 -1540 2000 0 2000 0 0 1540 0 1540 -738 0 -737 0 -260 260 c-143 143 -262 260 -265 260 -3 0 -122 -117 -265 -260z m465 -385 l195 -195 647 0 648 0 0 -1225 0 -1225 -1690 0 -1690 0 0 1225 0 1225 648 0 647 0 195 195 c107 107 197 195 200 195 3 0 93 -88 200 -195z"/>
 <path d="M920 2150 l0 -160 775 0 775 0 0 160 0 160 -775 0 -775 0 0 -160z"/>
 <path d="M920 1540 l0 -160 1080 0 1080 0 0 160 0 160 -1080 0 -1080 0 0 -160z"/>
 <path d="M920 920 l0 -160 1080 0 1080 0 0 160 0 160 -1080 0 -1080 0 0 -160z"/>
 </g>

</svg>