<!DOCTYPE svg PUBLIC "-//W3C//DTD SVG 20010904//EN" "http://www.w3.org/TR/2001/REC-SVG-20010904/DTD/svg10.dtd">
<svg version="1.1" xmlns="http://www.w3.org/2000/svg" xmlns:xlink="http://www.w3.org/1999/xlink" viewBox="0 0 224 224"><g fill="none" fill-rule="nonzero" stroke="none" stroke-width="1" stroke-linecap="butt" stroke-linejoin="miter" stroke-miterlimit="10" stroke-dasharray="" stroke-dashoffset="0" font-family="none" font-weight="none" font-size="none" text-anchor="none" style="mix-blend-mode: normal"><path d="M0,224v-224h224v224z" fill="none"></path><g id="Layer_1"><g><g fill="#ffffff"><circle cx="76" cy="19" transform="scale(1.75,1.75)" r="7"></circle></g><g fill="#ffffff"><circle cx="76" cy="109" transform="scale(1.75,1.75)" r="7"></circle></g><g><g><g fill="#ffffff"><path d="M101.5,45.85c0,-8.75 -7,-15.75 -15.75,-15.75c-8.75,0 -15.75,7 -15.75,15.75v0c-2.975,-2.275 -6.475,-3.5 -10.5,-3.5c-9.625,0 -17.5,7.875 -17.5,17.5c0,1.925 0.35,3.675 0.875,5.25c-0.35,0 -0.525,0 -0.875,0c-10.675,0 -19.25,8.575 -19.25,19.25c0,4.2 1.225,7.875 3.5,11.025c-7.35,4.725 -12.25,12.775 -12.25,22.225c0,9.275 4.9,17.5 12.075,22.05c-2.1,3.85 -3.325,8.225 -3.325,12.95c0,14.525 11.725,26.25 26.25,26.25c0.525,0 1.05,0 1.575,0c3.5,10.15 13.3,17.5 24.675,17.5c14.525,0 26.25,-11.725 26.25,-26.25c0,-14.35 0,-115.5 0,-124.25z"></path></g><path d="M85.75,24.85c-8.925,0 -16.45,5.425 -19.6,13.3c-2.1,-0.7 -4.375,-1.05 -6.65,-1.05c-12.6,0 -22.75,10.15 -22.75,22.75c0,0 0,0 0,0.175c-11.025,2.45 -19.425,12.25 -19.425,23.975c0,3.5 0.7,6.825 2.1,9.975c-6.65,5.95 -10.675,14.525 -10.675,23.625c0,1.05 0,1.925 0.175,2.8c0,0.175 0,0.35 0,0.525c0.175,0.875 0.175,1.925 0.35,2.8c0,0.175 0,0.175 0,0.35c0.175,0.875 0.35,1.75 0.7,2.625v0.175c0.35,0.875 0.7,1.75 1.05,2.8c0,0 0,0.175 0.175,0.175c0.7,1.75 1.75,3.5 2.8,5.075c0,0 0,0.175 0.175,0.175c1.05,1.575 2.275,2.975 3.675,4.375c0.175,0.175 0.175,0.175 0.35,0.35c0.7,0.525 1.225,1.225 1.925,1.75c0.175,0.175 0.35,0.35 0.525,0.35c0.525,0.35 1.05,0.7 1.575,1.05c0.35,0.175 0.525,0.35 0.875,0.7l0.175,0.175c0.175,0 0.175,0.175 0.35,0.175c4.9,2.975 10.5,4.725 16.625,4.725c17.325,0 31.5,-14.175 31.5,-31.5v-8.75c0,-2.975 -2.275,-5.25 -5.25,-5.25c-2.975,0 -5.25,2.275 -5.25,5.25v8.75c0,11.55 -9.45,21 -21,21c-4.2,0 -8.05,-1.225 -11.375,-3.325c-1.4,-0.875 -2.8,-1.925 -3.85,-3.15c-0.175,-0.175 -0.35,-0.35 -0.35,-0.525c-0.35,-0.35 -0.7,-0.875 -1.05,-1.4c-0.175,-0.175 -0.35,-0.35 -0.525,-0.7c-0.35,-0.525 -0.7,-1.05 -1.05,-1.575c0,-0.175 -0.175,-0.175 -0.175,-0.35c-0.35,-0.7 -0.7,-1.4 -1.05,-2.1c-0.175,-0.175 -0.175,-0.525 -0.35,-0.7c-0.175,-0.525 -0.35,-1.05 -0.525,-1.575c0,-0.35 -0.175,-0.525 -0.175,-0.875c-0.175,-0.525 -0.175,-1.05 -0.35,-1.575c0,-0.175 0,-0.525 -0.175,-0.7c0,-0.35 0,-1.225 0,-2.1c0,-7.175 3.675,-13.825 9.8,-17.675c1.925,-1.225 2.8,-3.5 2.275,-5.775c-0.175,-0.7 -0.35,-1.575 -0.875,-2.275c-1.75,-2.45 -2.625,-5.075 -2.625,-8.05c0,-6.825 4.9,-12.425 11.375,-13.825c3.85,7.35 11.375,12.425 20.3,12.425c2.975,0 5.25,-2.275 5.25,-5.25c0,-2.975 -2.275,-5.25 -5.25,-5.25c-5.425,0 -10.15,-3.675 -11.725,-8.575c-0.175,-0.525 -0.35,-1.05 -0.35,-1.575c0,-0.175 0,-0.175 0,-0.35c0,-0.525 -0.175,-1.05 -0.175,-1.75c0,-6.825 5.425,-12.25 12.25,-12.25c2.625,0 5.25,0.875 7.35,2.45c1.575,1.225 3.675,1.4 5.425,0.525c1.75,-0.875 2.975,-2.625 2.975,-4.725c0,0 0,0 0,-0.175c0,-5.775 4.725,-10.325 10.5,-10.325c5.775,0 10.5,4.725 10.5,10.5v124.25c0,11.55 -9.45,21 -21,21c-8.925,0 -16.8,-5.6 -19.775,-14c-0.7,-2.275 -2.975,-3.675 -5.25,-3.5h-0.525c-0.175,0 -0.525,0 -0.7,0c-11.55,0 -21,-9.45 -21,-21c0,-2.975 -2.275,-5.25 -5.25,-5.25c-2.975,0 -5.25,2.275 -5.25,5.25c0,16.625 13.125,30.45 29.575,31.5c5.25,10.675 16.1,17.5 28.175,17.5c17.325,0 31.5,-14.175 31.5,-31.5v-124.25c0,-11.375 -9.45,-20.825 -21,-20.825z" fill="#333333"></path><g fill="#333333"><path d="M35,100.8h-8.75c-2.975,0 -5.25,-2.275 -5.25,-5.25c0,-2.975 2.275,-5.25 5.25,-5.25h8.75c2.975,0 5.25,2.275 5.25,5.25c0,2.975 -2.275,5.25 -5.25,5.25z"></path></g></g><g><g fill="#ffffff"><circle cx="111" cy="64" transform="scale(1.75,1.75)" r="7"></circle></g><g fill="#ffffff"><circle cx="102" cy="33" transform="scale(1.75,1.75)" r="7"></circle></g><g fill="#ffffff"><circle cx="102" cy="95" transform="scale(1.75,1.75)" r="7"></circle></g><g fill="#3498db"><g><path d="M169.75,162.75c-1.4,0 -2.625,-0.525 -3.675,-1.575l-17.675,-17.675h-24.15c-2.975,0 -5.25,-2.275 -5.25,-5.25c0,-2.975 2.275,-5.25 5.25,-5.25h26.25c1.4,0 2.8,0.525 3.675,1.575l19.25,19.25c2.1,2.1 2.1,5.425 0,7.35c-1.05,1.05 -2.275,1.575 -3.675,1.575z"></path></g><g><path d="M150.5,91h-26.25c-2.975,0 -5.25,-2.275 -5.25,-5.25c0,-2.975 2.275,-5.25 5.25,-5.25h24.15l17.675,-17.675c2.1,-2.1 5.425,-2.1 7.35,0c2.1,2.1 2.1,5.425 0,7.35l-19.25,19.25c-0.875,1.05 -2.275,1.575 -3.675,1.575z"></path></g><g><path d="M182,117.25h-57.75c-2.975,0 -5.25,-2.275 -5.25,-5.25c0,-2.975 2.275,-5.25 5.25,-5.25h57.75c2.975,0 5.25,2.275 5.25,5.25c0,2.975 -2.275,5.25 -5.25,5.25z"></path></g><g><path d="M194.25,129.5c-9.625,0 -17.5,-7.875 -17.5,-17.5c0,-9.625 7.875,-17.5 17.5,-17.5c9.625,0 17.5,7.875 17.5,17.5c0,9.625 -7.875,17.5 -17.5,17.5zM194.25,105c-3.85,0 -7,3.15 -7,7c0,3.85 3.15,7 7,7c3.85,0 7,-3.15 7,-7c0,-3.85 -3.15,-7 -7,-7z"></path></g><g><path d="M178.5,75.25c-9.625,0 -17.5,-7.875 -17.5,-17.5c0,-9.625 7.875,-17.5 17.5,-17.5c9.625,0 17.5,7.875 17.5,17.5c0,9.625 -7.875,17.5 -17.5,17.5zM178.5,50.75c-3.85,0 -7,3.15 -7,7c0,3.85 3.15,7 7,7c3.85,0 7,-3.15 7,-7c0,-3.85 -3.15,-7 -7,-7z"></path></g><g><path d="M133,50.75c-9.625,0 -17.5,-7.875 -17.5,-17.5c0,-9.625 7.875,-17.5 17.5,-17.5c9.625,0 17.5,7.875 17.5,17.5c0,9.625 -7.875,17.5 -17.5,17.5zM133,26.25c-3.85,0 -7,3.15 -7,7c0,3.85 3.15,7 7,7c3.85,0 7,-3.15 7,-7c0,-3.85 -3.15,-7 -7,-7z"></path></g><g><path d="M178.5,183.75c-9.625,0 -17.5,-7.875 -17.5,-17.5c0,-9.625 7.875,-17.5 17.5,-17.5c9.625,0 17.5,7.875 17.5,17.5c0,9.625 -7.875,17.5 -17.5,17.5zM178.5,159.25c-3.85,0 -7,3.15 -7,7c0,3.85 3.15,7 7,7c3.85,0 7,-3.15 7,-7c0,-3.85 -3.15,-7 -7,-7z"></path></g><g><path d="M133,208.25c-9.625,0 -17.5,-7.875 -17.5,-17.5c0,-9.625 7.875,-17.5 17.5,-17.5c9.625,0 17.5,7.875 17.5,17.5c0,9.625 -7.875,17.5 -17.5,17.5zM133,183.75c-3.85,0 -7,3.15 -7,7c0,3.85 3.15,7 7,7c3.85,0 7,-3.15 7,-7c0,-3.85 -3.15,-7 -7,-7z"></path></g></g></g></g></g></g></g></svg>