<!DOCTYPE svg PUBLIC "-//W3C//DTD SVG 20010904//EN" "http://www.w3.org/TR/2001/REC-SVG-20010904/DTD/svg10.dtd">
<svg version="1.0" xmlns="http://www.w3.org/2000/svg" width="512px" height="512px" viewBox="0 0 5120 5120" preserveAspectRatio="xMidYMid meet">
<g id="layer101" fill="#cfcfcf" stroke="none">
 <path d="M2485 5108 c-11 -6 -22 -14 -25 -18 -3 -4 -27 -19 -55 -34 -27 -15 -78 -44 -112 -64 -66 -39 -198 -115 -248 -142 -16 -10 -84 -47 -150 -85 -66 -37 -183 -102 -260 -144 -77 -42 -154 -86 -170 -98 -47 -32 -84 -53 -91 -52 -4 0 -10 -4 -13 -9 -3 -5 -26 -20 -51 -32 -25 -12 -47 -26 -50 -30 -3 -4 -32 -21 -65 -38 -33 -18 -85 -46 -115 -63 -96 -56 -191 -110 -330 -186 -187 -104 -205 -114 -290 -166 -41 -26 -96 -58 -122 -72 -29 -15 -50 -34 -53 -48 -3 -12 -4 -591 -3 -1287 l3 -1264 55 -33 c30 -18 69 -39 85 -47 32 -15 143 -80 160 -93 29 -23 101 -66 190 -113 55 -29 159 -87 230 -129 72 -41 184 -104 250 -140 66 -36 122 -68 125 -72 3 -3 28 -18 55 -33 63 -34 111 -63 150 -89 17 -12 89 -53 160 -93 160 -88 343 -190 495 -277 63 -36 138 -78 165 -93 28 -15 61 -35 74 -45 30 -24 72 -24 102 0 13 10 47 30 74 45 28 15 102 57 165 93 152 87 335 189 495 277 72 40 144 81 160 93 39 26 87 55 150 89 28 15 52 30 55 33 3 4 59 36 125 72 66 36 179 99 250 140 72 42 175 100 230 129 89 47 161 90 190 113 17 13 128 78 160 93 17 8 55 29 85 47 l55 33 3 1264 c1 696 0 1275 -3 1287 -3 14 -24 33 -53 48 -26 14 -81 46 -122 72 -85 52 -103 62 -290 166 -139 76 -234 130 -330 186 -30 17 -82 45 -115 63 -33 17 -62 34 -65 38 -3 4 -25 18 -50 30 -25 12 -48 27 -51 32 -3 5 -9 9 -13 9 -7 -1 -44 20 -91 52 -16 12 -93 56 -170 98 -77 42 -194 107 -260 144 -66 38 -133 75 -150 85 -50 27 -182 103 -248 142 -34 20 -84 49 -112 64 -27 15 -52 30 -55 34 -19 28 -81 37 -115 18z m996 -902 l934 -515 0 -1092 0 -1092 -942 -523 -943 -523 -942 523 -943 523 0 1092 0 1092 940 519 c517 286 945 518 951 516 6 -2 431 -236 945 -520z"/>
 </g>

</svg>