<!DOCTYPE svg PUBLIC "-//W3C//DTD SVG 20010904//EN" "http://www.w3.org/TR/2001/REC-SVG-20010904/DTD/svg10.dtd">
<svg version="1.0" xmlns="http://www.w3.org/2000/svg" width="1068px" height="1084px" viewBox="0 0 10680 10840" preserveAspectRatio="xMidYMid meet">
<g id="layer101" fill="#ffffff" stroke="none">
 <path d="M1065 9770 l-1070 -1070 1025 -1026 c564 -564 1073 -1067 1132 -1118 273 -236 570 -389 918 -472 229 -55 190 -54 2108 -54 l1774 0 -5 343 c-4 331 -5 345 -31 447 -30 116 -91 254 -156 351 -24 35 -84 105 -134 154 -150 149 -289 228 -501 287 -78 21 -100 22 -735 27 -710 6 -674 3 -752 63 -117 90 -117 304 0 397 82 64 23 61 1215 61 l1082 0 1250 -1249 c1299 -1298 1302 -1300 1440 -1358 151 -64 342 -77 490 -34 254 73 441 252 528 506 26 75 32 109 35 207 4 104 1 127 -22 210 -15 51 -46 129 -69 173 -40 78 -80 119 -1447 1488 -773 775 -1434 1431 -1470 1458 -77 58 -188 117 -287 152 -165 59 -69 57 -2208 57 l-1960 0 -535 535 c-294 294 -537 535 -540 535 -3 0 -487 -481 -1075 -1070z"/>
 <path d="M5040 4476 l-1115 -641 0 -1279 0 -1279 1119 -641 1120 -640 50 28 c28 15 535 305 1126 643 l1075 616 -3 1281 -2 1282 -1125 637 c-618 350 -1126 637 -1127 636 -2 -1 -505 -290 -1118 -643z m1405 -671 c509 -109 891 -492 1001 -1002 23 -108 23 -378 0 -486 -23 -105 -69 -233 -121 -338 -51 -100 -171 -264 -242 -330 -134 -125 -301 -226 -475 -287 -139 -50 -227 -64 -388 -64 -292 -1 -502 61 -732 214 -265 177 -453 459 -529 792 -25 107 -30 368 -10 476 103 542 547 965 1091 1040 88 12 319 4 405 -15z"/>
 </g>

</svg>