<!DOCTYPE svg PUBLIC "-//W3C//DTD SVG 20010904//EN" "http://www.w3.org/TR/2001/REC-SVG-20010904/DTD/svg10.dtd">
<svg version="1.0" xmlns="http://www.w3.org/2000/svg" width="512px" height="512px" viewBox="0 0 5120 5120" preserveAspectRatio="xMidYMid meet">
<g id="layer101" fill="#ff3300" stroke="none">
 <path d="M2485 5108 c-11 -6 -22 -14 -25 -18 -3 -4 -27 -19 -55 -34 -27 -15 -78 -44 -112 -64 -66 -39 -198 -115 -248 -142 -16 -10 -84 -47 -150 -85 -66 -37 -183 -102 -260 -144 -77 -42 -154 -86 -170 -98 -47 -32 -84 -53 -91 -52 -4 0 -10 -4 -13 -9 -3 -5 -28 -21 -56 -36 -27 -15 -79 -44 -115 -65 -178 -102 -279 -159 -440 -248 -187 -104 -205 -114 -290 -166 -41 -26 -96 -58 -122 -72 -29 -15 -50 -34 -53 -48 -3 -12 -4 -591 -3 -1287 l3 -1264 55 -33 c30 -18 69 -39 85 -47 33 -16 144 -81 160 -93 25 -21 121 -77 235 -138 69 -38 168 -93 220 -123 52 -31 149 -85 215 -121 66 -36 122 -68 125 -72 3 -3 28 -18 55 -33 63 -34 111 -63 150 -89 17 -12 89 -53 160 -93 160 -88 343 -190 495 -277 63 -36 138 -78 165 -93 28 -15 61 -35 74 -45 30 -24 72 -24 102 0 13 10 47 30 74 45 28 15 102 57 165 93 152 87 335 189 495 277 72 40 144 81 160 93 39 26 87 55 150 89 28 15 52 30 55 33 3 4 59 36 125 72 66 36 179 99 250 140 72 42 175 100 230 129 89 47 161 90 190 113 17 13 128 78 160 93 17 8 55 29 85 47 l55 33 3 1264 c1 696 0 1275 -3 1287 -3 14 -24 33 -53 48 -26 14 -81 46 -122 72 -85 52 -103 62 -290 166 -139 76 -234 130 -330 186 -30 17 -82 45 -115 63 -33 17 -62 34 -65 38 -3 4 -25 18 -50 30 -25 12 -48 27 -51 32 -3 5 -9 9 -13 9 -7 -1 -44 20 -91 52 -16 12 -93 56 -170 98 -77 42 -194 107 -260 144 -66 38 -133 75 -150 85 -50 27 -182 103 -248 142 -34 20 -84 49 -112 64 -27 15 -52 30 -55 34 -19 28 -81 37 -115 18z m1065 -940 l865 -477 0 -1092 0 -1092 -940 -522 -940 -521 -3 411 -2 412 -88 6 c-159 11 -368 77 -518 164 -725 424 -855 1410 -263 2002 210 210 506 349 782 368 l87 6 0 449 0 449 78 -42 c42 -24 466 -258 942 -521z"/>
 </g>
<g id="layer102" fill="#cfcfcf" stroke="none">
 <path d="M2520 4925 l0 -195 29 -18 c15 -9 440 -244 944 -522 l917 -505 0 -1086 0 -1085 -927 -514 c-511 -282 -936 -520 -945 -528 -16 -14 -18 -38 -18 -244 l0 -228 23 1 c12 0 56 20 97 44 161 93 483 274 679 382 74 40 142 80 150 87 9 8 34 23 56 35 22 12 69 40 105 61 36 21 117 67 180 102 63 35 174 98 245 139 72 42 175 100 230 129 55 29 129 72 165 95 86 55 165 102 265 156 22 12 48 28 57 37 17 14 18 88 18 1284 0 856 -3 1276 -10 1289 -6 10 -32 30 -58 44 -26 14 -81 46 -122 72 -85 52 -103 62 -290 166 -131 72 -233 130 -315 177 -22 12 -69 39 -105 59 -36 19 -79 44 -96 56 -39 24 -97 58 -104 60 -6 1 -55 31 -95 58 -16 12 -93 56 -170 98 -77 42 -194 107 -260 144 -66 38 -133 75 -150 85 -46 25 -179 101 -245 140 -147 87 -211 120 -230 120 -19 0 -20 -5 -20 -195z"/>
 </g>

</svg>