<!DOCTYPE svg PUBLIC "-//W3C//DTD SVG 20010904//EN" "http://www.w3.org/TR/2001/REC-SVG-20010904/DTD/svg10.dtd">
<svg version="1.0" xmlns="http://www.w3.org/2000/svg" width="118px" height="118px" viewBox="0 0 1180 1180" preserveAspectRatio="xMidYMid meet">
<g id="layer101" fill="#b0b0b0" stroke="none">
 <path d="M479 1075 c-233 -263 -313 -407 -326 -585 -21 -291 208 -515 491 -480 89 11 166 49 237 116 136 131 172 321 98 520 -12 31 -52 102 -90 158 -89 132 -280 370 -300 374 -9 2 -53 -40 -110 -103z m184 -448 c83 -35 137 -113 137 -196 0 -66 -13 -98 -62 -148 -94 -96 -231 -90 -316 12 -52 64 -65 141 -33 210 49 107 175 163 274 122z"/>
 </g>

</svg>