<!DOCTYPE svg PUBLIC "-//W3C//DTD SVG 20010904//EN" "http://www.w3.org/TR/2001/REC-SVG-20010904/DTD/svg10.dtd">
<svg version="1.0" xmlns="http://www.w3.org/2000/svg" width="1600px" height="431px" viewBox="0 0 16000 4310" preserveAspectRatio="xMidYMid meet">
<g id="layer101" fill="#ffffff" stroke="none">
 <path d="M8922 3955 c-152 -23 -367 -83 -442 -122 -14 -7 -30 -13 -35 -13 -6 0 -35 -13 -65 -30 -30 -16 -69 -36 -87 -45 -51 -24 -196 -120 -217 -144 -11 -11 -25 -21 -31 -21 -14 0 -285 -269 -285 -283 0 -5 -18 -29 -40 -54 -22 -25 -40 -52 -40 -59 0 -7 -4 -14 -8 -16 -10 -4 -72 -96 -72 -107 0 -5 -16 -35 -35 -67 -19 -32 -39 -72 -44 -89 -5 -16 -23 -64 -41 -105 -17 -41 -38 -102 -45 -135 -7 -33 -23 -103 -35 -155 -34 -145 -39 -463 -11 -615 50 -270 90 -387 198 -590 43 -78 119 -195 158 -239 14 -16 25 -32 25 -35 0 -7 196 -207 235 -241 83 -72 209 -153 348 -224 423 -217 946 -252 1407 -96 79 27 229 95 290 132 25 15 63 37 84 49 21 11 51 32 65 45 14 13 29 24 33 24 15 0 138 107 225 197 83 86 158 181 229 288 82 123 203 405 223 518 5 29 19 104 31 167 19 102 21 139 17 325 -4 165 -10 228 -26 295 -11 47 -21 95 -21 108 0 34 -74 233 -127 342 -53 109 -100 188 -160 267 -24 31 -43 60 -43 63 0 14 -281 290 -295 290 -8 0 -18 7 -22 15 -10 17 -199 145 -215 145 -5 0 -22 8 -36 18 -50 35 -261 123 -327 137 -16 3 -64 15 -105 26 -191 48 -472 63 -658 34z m440 -774 c110 -21 305 -98 350 -140 12 -12 31 -24 42 -27 12 -4 25 -12 31 -19 5 -6 34 -31 63 -54 49 -41 172 -181 172 -197 0 -4 12 -23 26 -42 62 -80 128 -272 139 -397 18 -219 -7 -411 -71 -534 -8 -14 -14 -32 -14 -38 0 -7 -17 -39 -37 -70 -21 -32 -43 -68 -50 -81 -19 -35 -157 -178 -230 -237 -68 -56 -187 -117 -308 -157 -115 -39 -126 -41 -275 -45 -134 -4 -167 -2 -244 16 -49 12 -109 30 -134 41 -24 11 -50 20 -56 20 -7 0 -38 15 -70 33 -32 17 -70 39 -85 47 -71 38 -291 253 -291 285 0 6 -8 19 -17 28 -23 21 -66 105 -117 230 -23 56 -47 218 -47 320 -2 222 50 398 170 577 229 343 641 516 1053 441z"/>
 <path d="M4370 2100 l0 -1740 858 0 c820 0 861 1 952 20 52 11 116 25 143 30 26 5 74 23 106 39 33 16 70 32 83 36 12 4 49 25 82 46 32 22 62 39 65 39 15 0 195 186 208 215 7 17 29 55 48 85 19 30 34 62 35 70 0 8 9 38 20 66 52 138 70 352 41 489 -21 100 -79 259 -116 321 -19 32 -34 62 -32 67 1 5 31 32 67 60 35 29 87 83 116 121 55 72 144 233 144 260 0 9 11 49 25 89 13 41 31 116 40 168 20 124 20 366 0 464 -19 91 -75 244 -108 294 -13 20 -31 48 -40 62 -27 44 -128 149 -186 193 -94 71 -193 124 -321 174 -72 28 -111 38 -228 61 -35 7 -386 11 -1028 11 l-974 0 0 -1740z m1907 1079 c130 -19 224 -88 285 -209 29 -58 32 -75 33 -150 0 -68 -5 -98 -25 -149 -31 -80 -111 -164 -195 -206 l-60 -30 -547 -3 -548 -3 0 380 0 381 490 0 c309 0 518 -4 567 -11z m-172 -1437 c173 -83 258 -261 210 -440 -25 -94 -62 -144 -161 -222 -11 -8 -44 -24 -74 -35 -51 -19 -84 -20 -457 -23 l-403 -3 0 381 0 381 408 -3 407 -3 70 -33z"/>
 <path d="M11190 2100 l0 -1740 425 0 425 0 0 1365 0 1365 835 0 835 0 0 375 0 375 -1260 0 -1260 0 0 -1740z"/>
 <path d="M13880 2525 l0 -1315 -450 0 -450 0 0 -425 0 -425 1325 0 1325 0 0 425 0 425 -455 0 -455 0 0 1315 0 1315 -420 0 -420 0 0 -1315z"/>
 <path d="M711 3538 c-160 -161 -291 -297 -291 -302 0 -5 253 -263 562 -573 310 -309 564 -567 566 -572 2 -5 -251 -264 -562 -575 -312 -311 -566 -571 -566 -576 0 -6 45 -54 99 -108 54 -53 189 -186 299 -295 l201 -198 572 572 571 571 574 -573 574 -574 300 300 c165 165 300 304 300 310 0 5 -256 266 -569 579 l-569 569 569 569 c313 314 569 574 569 578 0 16 -584 590 -600 590 -7 0 -268 -256 -580 -569 l-568 -568 -568 568 c-313 313 -574 569 -580 569 -7 0 -143 -131 -303 -292z"/>
 </g>

</svg>