<!DOCTYPE svg PUBLIC "-//W3C//DTD SVG 20010904//EN" "http://www.w3.org/TR/2001/REC-SVG-20010904/DTD/svg10.dtd">
<svg version="1.1" xmlns="http://www.w3.org/2000/svg" xmlns:xlink="http://www.w3.org/1999/xlink" viewBox="0 0 224 224"><g fill="none" fill-rule="nonzero" stroke="none" stroke-width="1" stroke-linecap="butt" stroke-linejoin="miter" stroke-miterlimit="10" stroke-dasharray="" stroke-dashoffset="0" font-family="none" font-weight="none" font-size="none" text-anchor="none" style="mix-blend-mode: normal"><path d="M0,224v-224h224v224z" fill="none"></path><g fill="#cccccc"><g id="surface1"><path d="M50.07692,-0.26923c-4.20673,0.80769 -7.20192,4.57692 -7,8.88462v8.61538c-0.03365,3.09615 1.58173,5.99039 4.27404,7.57211c2.69231,1.54808 5.99038,1.54808 8.68269,0c2.69231,-1.58172 4.30769,-4.47596 4.27404,-7.57211v-8.61538c0.06731,-2.32211 -0.80769,-4.57692 -2.42308,-6.25961c-1.61538,-1.6827 -3.87019,-2.625 -6.19231,-2.625c-0.26923,0 -0.53846,0 -0.80769,0c-0.26923,0 -0.53846,0 -0.80769,0zM16.42308,8.34615c-0.37019,0.06731 -0.74038,0.16827 -1.07692,0.26923c-3.09615,0.63943 -5.58653,2.96154 -6.49519,5.99039c-0.90866,3.02884 -0.06731,6.32692 2.1875,8.54807l8.61538,8.61538c3.33173,3.4327 8.81731,3.46635 12.25,0.13462c3.4327,-3.33173 3.46635,-8.8173 0.13462,-12.25l-8.61538,-8.61538c-1.78365,-1.91827 -4.375,-2.89423 -7,-2.69231zM120.61538,8.61538c-47.48558,0 -86.15385,38.66827 -86.15385,86.15385v43.07692c0,47.48558 38.66827,86.15385 86.15385,86.15385c47.48558,0 86.15385,-38.66827 86.15385,-86.15385v-43.07692c0,-47.48558 -38.66827,-86.15385 -86.15385,-86.15385zM129.23077,26.38462c34.05769,4.24039 60.30769,33.14904 60.30769,68.38462v17.23077h-60.30769zM6.19231,43.07692c-4.74519,0.67308 -8.07692,5.08173 -7.40385,9.82692c0.67308,4.74519 5.08173,8.07692 9.82692,7.40385h8.61538c3.09615,0.03365 5.99039,-1.58173 7.57211,-4.27404c1.54808,-2.69231 1.54808,-5.99038 0,-8.68269c-1.58172,-2.69231 -4.47596,-4.30769 -7.57211,-4.27404h-8.61538c-0.53846,-0.0673 -1.07692,-0.0673 -1.61538,0c-0.26923,0 -0.53846,0 -0.80769,0zM51.69231,129.23077h137.84615v8.61538c0,38.16347 -30.75961,68.92308 -68.92308,68.92308c-38.16346,0 -68.92308,-30.75961 -68.92308,-68.92308z"></path></g></g></g></svg>