<!DOCTYPE svg PUBLIC "-//W3C//DTD SVG 20010904//EN" "http://www.w3.org/TR/2001/REC-SVG-20010904/DTD/svg10.dtd">
<svg version="1.1" xmlns="http://www.w3.org/2000/svg" xmlns:xlink="http://www.w3.org/1999/xlink" viewBox="0 0 224 224"><g fill="none" fill-rule="nonzero" stroke="none" stroke-width="1" stroke-linecap="butt" stroke-linejoin="miter" stroke-miterlimit="10" stroke-dasharray="" stroke-dashoffset="0" font-family="none" font-weight="none" font-size="none" text-anchor="none" style="mix-blend-mode: normal"><path d="M0,224v-224h224v224z" fill="none"></path><g fill="#cccccc"><g id="surface1"><path d="M112,0c-47.48558,0 -86.15385,38.66827 -86.15385,86.15385v51.69231c0,47.48558 38.66827,86.15385 86.15385,86.15385c47.48558,0 86.15385,-38.66827 86.15385,-86.15385v-51.69231c0,-47.48558 -38.66827,-86.15385 -86.15385,-86.15385zM103.38462,17.76923v85.61538h-60.30769v-17.23077c0,-35.23558 26.25,-64.14423 60.30769,-68.38462zM120.61538,17.76923c34.05769,4.24039 60.30769,33.14904 60.30769,68.38462v17.23077h-60.30769zM43.07692,120.61538h137.84615v17.23077c0,38.16347 -30.75961,68.92308 -68.92308,68.92308c-38.16346,0 -68.92308,-30.75961 -68.92308,-68.92308z"></path></g></g></g></svg>