<!DOCTYPE svg PUBLIC "-//W3C//DTD SVG 20010904//EN" "http://www.w3.org/TR/2001/REC-SVG-20010904/DTD/svg10.dtd">
<svg version="1.0" xmlns="http://www.w3.org/2000/svg" width="455px" height="454px" viewBox="0 0 4550 4540" preserveAspectRatio="xMidYMid meet">
<g id="layer101" fill="#acacac" stroke="none">
 <path d="M4035 4170 l-369 -369 -1566 -3 -1565 -3 -71 -26 c-129 -47 -227 -128 -279 -230 -56 -110 -55 -81 -55 -1170 0 -1094 0 -1085 57 -1192 15 -29 58 -82 94 -120 110 -111 208 -145 424 -146 l70 -1 -388 -388 -387 -387 68 -68 c37 -37 72 -67 77 -67 6 0 1000 990 2210 2200 l2199 2199 -20 22 c-10 12 -44 43 -75 70 l-55 48 -369 -369z m-900 -900 c-330 -330 -330 -330 -347 -308 -9 13 -25 40 -34 61 l-17 37 -456 0 -456 -1 -217 -384 c-120 -211 -218 -391 -218 -400 0 -10 60 -122 134 -250 l134 -232 -344 -344 -344 -344 -203 1 c-184 2 -207 4 -252 23 -62 27 -139 101 -171 163 l-24 47 0 1008 c0 984 1 1009 20 1052 39 85 89 141 154 172 l61 29 1455 0 1455 0 -330 -330z m-795 -551 c36 -5 91 -22 123 -36 l58 -26 -303 -304 c-245 -245 -305 -300 -315 -290 -20 20 -53 122 -59 185 -23 218 146 435 366 471 30 5 57 9 60 10 3 0 34 -4 70 -10z"/>
 <path d="M4119 3664 l-63 -64 66 -66 c73 -73 90 -101 113 -190 21 -83 23 -1788 1 -1931 -23 -150 -74 -229 -186 -282 l-55 -26 -386 -3 -386 -3 -188 -205 -188 -204 -572 0 -572 0 -129 140 c-71 77 -134 140 -139 140 -16 0 -128 -116 -124 -129 2 -6 71 -85 153 -176 l150 -165 662 0 662 0 187 205 188 205 334 0 c394 0 437 6 544 77 137 90 210 205 238 374 14 86 15 1895 1 1992 -17 119 -82 242 -167 317 -76 67 -72 67 -144 -6z"/>
 <path d="M2868 2413 c-144 -146 -146 -149 -158 -208 -28 -138 -112 -250 -233 -310 -40 -20 -95 -38 -123 -41 -51 -6 -53 -8 -230 -185 l-179 -179 395 0 395 1 218 384 c119 211 217 391 217 400 0 13 -147 285 -154 285 -1 0 -67 -66 -148 -147z"/>
 </g>

</svg>