<!DOCTYPE svg PUBLIC "-//W3C//DTD SVG 20010904//EN" "http://www.w3.org/TR/2001/REC-SVG-20010904/DTD/svg10.dtd">
<svg version="1.0" xmlns="http://www.w3.org/2000/svg" width="120px" height="121px" viewBox="0 0 1200 1210" preserveAspectRatio="xMidYMid meet">
<g id="layer101" fill="#ff6600" stroke="none">
 <path d="M400 1005 l0 -205 -201 -2 -200 -3 587 -395 c324 -217 594 -396 601 -398 18 -5 19 1067 2 1101 -17 32 -60 77 -91 93 -32 17 -140 19 -171 3 -32 -17 -77 -60 -93 -91 -18 -35 -18 -141 0 -177 l15 -27 -69 -38 -69 -37 -148 190 c-81 105 -151 190 -155 191 -5 0 -8 -92 -8 -205z m385 -430 c158 -220 292 -407 298 -415 20 -29 -102 96 -352 359 l-251 263 0 106 c0 61 4 102 9 97 5 -6 138 -190 296 -410z"/>
 </g>
<g id="layer102" fill="#ffffff" stroke="none">
 <path d="M400 1005 l0 -205 -201 -2 -200 -3 587 -395 c324 -217 594 -396 601 -398 11 -3 13 91 13 495 -1 434 -3 493 -15 460 -25 -72 -101 -127 -175 -127 -40 0 -108 29 -129 53 -19 24 -32 22 -105 -18 l-64 -36 -149 190 c-81 105 -151 190 -155 191 -5 0 -8 -92 -8 -205z m385 -430 c158 -220 292 -407 298 -415 20 -29 -102 96 -352 359 l-251 263 0 106 c0 61 4 102 9 97 5 -6 138 -190 296 -410z"/>
 </g>

</svg>