<!DOCTYPE svg PUBLIC "-//W3C//DTD SVG 20010904//EN" "http://www.w3.org/TR/2001/REC-SVG-20010904/DTD/svg10.dtd">
<svg version="1.0" xmlns="http://www.w3.org/2000/svg" width="120px" height="121px" viewBox="0 0 1200 1210" preserveAspectRatio="xMidYMid meet">
<g id="layer101" fill="#ffffff" stroke="none">
 <path d="M400 1005 l0 -205 -201 -2 -200 -3 587 -395 c324 -217 594 -396 601 -398 11 -3 13 100 13 542 0 361 -3 546 -10 546 -6 0 -106 -53 -223 -119 -116 -65 -222 -123 -234 -130 -21 -10 -31 1 -170 178 -81 105 -151 190 -155 191 -5 0 -8 -92 -8 -205z m385 -430 c158 -220 292 -407 298 -415 20 -29 -102 96 -352 359 l-251 263 0 106 c0 61 4 102 9 97 5 -6 138 -190 296 -410z"/>
 </g>

</svg>