<!DOCTYPE svg PUBLIC "-//W3C//DTD SVG 20010904//EN" "http://www.w3.org/TR/2001/REC-SVG-20010904/DTD/svg10.dtd">
<svg version="1.0" xmlns="http://www.w3.org/2000/svg" width="132px" height="132px" viewBox="0 0 1320 1320" preserveAspectRatio="xMidYMid meet">
<g id="layer101" fill="#ffffff" stroke="none">
 <path d="M915 1205 c-5 -1 -37 -11 -70 -20 -33 -10 -64 -21 -69 -26 -6 -5 -16 -9 -23 -9 -22 0 -145 -61 -208 -103 -147 -99 -318 -302 -405 -483 -32 -65 -34 -76 -35 -174 0 -117 12 -151 77 -221 44 -48 67 -59 126 -59 65 0 85 18 116 105 13 39 34 98 47 133 23 62 23 63 4 95 -10 17 -34 48 -52 67 -18 19 -33 39 -33 44 0 27 91 158 153 218 45 45 128 103 189 131 68 32 71 31 142 -54 35 -42 56 -59 73 -59 21 0 82 29 225 109 47 25 48 27 48 74 0 71 -32 129 -93 171 -63 43 -171 74 -212 61z"/>
 </g>

</svg>