<!DOCTYPE svg PUBLIC "-//W3C//DTD SVG 20010904//EN" "http://www.w3.org/TR/2001/REC-SVG-20010904/DTD/svg10.dtd">
<svg version="1.0" xmlns="http://www.w3.org/2000/svg" width="1504px" height="1504px" viewBox="0 0 15040 15040" preserveAspectRatio="xMidYMid meet">
<g id="layer101" fill="#ffffff" stroke="none">
 <path d="M6860 13684 c-36 -2 -159 -8 -275 -14 -2007 -101 -3891 -564 -5105 -1255 -819 -465 -1305 -996 -1451 -1585 -21 -85 -24 -117 -24 -310 0 -235 11 -306 77 -485 263 -722 1111 -1384 2403 -1876 232 -89 641 -223 658 -216 8 3 20 46 31 108 10 57 38 183 62 279 414 1657 1707 2958 3360 3379 399 101 728 142 1149 142 421 0 750 -41 1149 -142 1537 -392 2771 -1547 3269 -3060 46 -138 116 -401 138 -517 10 -51 15 -62 28 -57 9 4 70 26 137 50 614 224 1179 515 1594 823 525 389 837 804 951 1262 21 85 24 117 24 310 0 193 -3 225 -24 310 -114 458 -426 873 -951 1262 -1100 816 -3011 1386 -5205 1553 -438 33 -566 37 -1235 40 -382 1 -724 1 -760 -1z"/>
 <path d="M7303 10615 c-1516 -151 -2841 -1004 -3599 -2317 -285 -492 -483 -1063 -569 -1640 -61 -405 -61 -961 0 -1366 212 -1416 1048 -2644 2287 -3358 492 -285 1063 -483 1640 -569 405 -61 961 -61 1366 0 1416 212 2644 1048 3358 2287 285 492 483 1063 569 1640 61 405 61 961 0 1366 -230 1532 -1193 2843 -2580 3512 -506 245 -1031 390 -1601 445 -194 19 -682 18 -871 0z m902 -973 c44 -5 100 -10 125 -11 25 -1 90 -10 145 -20 55 -11 123 -22 150 -26 44 -6 206 -54 345 -102 72 -25 310 -151 367 -195 29 -22 94 -83 146 -137 104 -109 148 -183 192 -326 39 -130 35 -314 -11 -454 -22 -65 -117 -272 -143 -310 -7 -11 -23 -2 -77 48 -385 352 -1198 611 -2139 681 -181 13 -739 13 -920 0 -531 -39 -1028 -138 -1412 -279 -59 -22 -109 -39 -110 -37 -8 8 204 210 290 276 133 103 254 187 302 212 22 11 65 37 96 58 75 51 395 209 505 251 49 18 98 38 109 45 21 14 228 84 246 84 5 0 31 10 57 21 26 12 101 35 167 51 66 16 129 33 140 38 22 9 148 37 230 50 27 5 84 16 125 24 41 9 111 19 155 22 44 4 85 10 90 15 6 4 93 13 195 18 101 6 184 12 186 13 6 7 377 -2 449 -10z m1294 -3987 c365 -95 622 -430 622 -810 0 -465 -371 -836 -836 -836 -465 0 -836 371 -836 836 0 549 519 949 1050 810z m-3970 -430 c365 -95 622 -430 622 -810 0 -465 -371 -836 -836 -836 -465 0 -836 371 -836 836 0 549 519 949 1050 810z"/>
 </g>

</svg>