<!DOCTYPE svg PUBLIC "-//W3C//DTD SVG 20010904//EN" "http://www.w3.org/TR/2001/REC-SVG-20010904/DTD/svg10.dtd">
<svg version="1.1" xmlns="http://www.w3.org/2000/svg" xmlns:xlink="http://www.w3.org/1999/xlink" viewBox="0 0 224 224"><g fill="none" fill-rule="nonzero" stroke="none" stroke-width="1" stroke-linecap="butt" stroke-linejoin="miter" stroke-miterlimit="10" stroke-dasharray="" stroke-dashoffset="0" font-family="none" font-weight="none" font-size="none" text-anchor="none" style="mix-blend-mode: normal"><path d="M0,224v-224h224v224z" fill="none"></path><g id="Layer_1"><g><g fill="#ffffff"><circle cx="64" cy="64" transform="scale(1.75,1.75)" r="50"></circle></g><g fill="#333333"><path d="M155.75,106.75h-27.125c-1.75,-5.425 -5.95,-9.8 -11.375,-11.375v-44.625c0,-2.975 -2.275,-5.25 -5.25,-5.25c-2.975,0 -5.25,2.275 -5.25,5.25v44.625c-7.175,2.275 -12.25,8.925 -12.25,16.625c0,9.625 7.875,17.5 17.5,17.5c7.875,0 14.525,-5.075 16.625,-12.25h27.125c2.975,0 5.25,-2.275 5.25,-5.25c0,-2.975 -2.275,-5.25 -5.25,-5.25zM112,119c-3.85,0 -7,-3.15 -7,-7c0,-3.85 3.15,-7 7,-7c3.85,0 7,3.15 7,7c0,3.85 -3.15,7 -7,7z"></path></g><g><g><g><g><g fill="#e74c3c"><path d="M193.725,147h-30.45c-1.925,0 -3.675,1.05 -4.55,2.625l-15.225,26.25c-0.875,1.575 -0.875,3.675 0,5.25l15.225,26.25c0.875,1.575 2.625,2.625 4.55,2.625h30.275c1.925,0 3.675,-1.05 4.55,-2.625l15.225,-26.25c0.875,-1.575 0.875,-3.675 0,-5.25l-15.225,-26.25c-0.875,-1.575 -2.625,-2.625 -4.375,-2.625z"></path></g><g fill="#ffffff"><circle cx="102" cy="102" transform="scale(1.75,1.75)" r="9"></circle></g></g></g></g></g><g fill="#333333"><path d="M112,204.75c-51.1,0 -92.75,-41.65 -92.75,-92.75c0,-51.1 41.65,-92.75 92.75,-92.75c51.1,0 92.75,41.65 92.75,92.75c0,2.8 -0.175,5.775 -0.35,8.575c-0.35,2.8 -2.8,5.075 -5.775,4.725c-2.8,-0.35 -5.075,-2.8 -4.725,-5.775c0.175,-2.45 0.35,-5.075 0.35,-7.525c0,-45.325 -36.925,-82.25 -82.25,-82.25c-45.325,0 -82.25,36.925 -82.25,82.25c0,45.325 36.925,82.25 82.25,82.25c2.625,0 5.25,-0.175 7.875,-0.35c2.8,-0.35 5.425,1.925 5.775,4.725c0.35,2.8 -1.925,5.425 -4.725,5.775c-2.975,0.175 -5.95,0.35 -8.925,0.35z"></path></g></g></g></g></svg>