<!DOCTYPE svg PUBLIC "-//W3C//DTD SVG 20010904//EN" "http://www.w3.org/TR/2001/REC-SVG-20010904/DTD/svg10.dtd">
<svg version="1.1" xmlns="http://www.w3.org/2000/svg" xmlns:xlink="http://www.w3.org/1999/xlink" viewBox="0 0 224 224"><g fill="none" fill-rule="nonzero" stroke="none" stroke-width="1" stroke-linecap="butt" stroke-linejoin="miter" stroke-miterlimit="10" stroke-dasharray="" stroke-dashoffset="0" font-family="none" font-weight="none" font-size="none" text-anchor="none" style="mix-blend-mode: normal"><path d="M0,224v-224h224v224z" fill="none"></path><g id="Layer_1"><g><g fill="#ffffff"><path d="M216.825,152.95c-3.15,-7 -11.725,-9.8 -18.725,-6.825l-6.125,2.625l-1.225,-2.45c-2.975,-7.175 -11.2,-10.5 -18.375,-7.35l-36.4,15.925c-1.4,-2.275 -3.5,-4.025 -6.125,-5.25l-45.15,-20.3c-17.5,-7.875 -37.975,-5.425 -53.2,6.3l-6.825,5.25l-1.75,1.75v0h-15.925c-2.975,0 -5.25,2.275 -5.25,5.25v56h21v-9.1l1.575,-0.875c5.775,-3.325 12.95,-3.5 18.9,-0.525l38.85,19.425c9.1,4.375 19.6,4.725 29.05,0.7l98.7,-41.65c7,-3.15 10.325,-11.725 7,-18.9z"></path></g><path d="M221.9,151.375c-1.925,-4.725 -5.775,-8.4 -10.5,-10.325c-2.1,-0.875 -4.375,-1.225 -6.65,-1.4c0,-0.525 0,-0.875 0,-1.4c0,-18.375 -5.775,-35.7 -16.8,-50.4v0l-30.275,-39.725c-6.125,-7.875 -6.125,-19.075 -0.175,-27.125l1.4,-1.925c2.45,-3.5 2.8,-8.05 0.525,-11.55c-2.275,-4.025 -6.475,-5.95 -10.675,-5.25c-21.175,3.325 -37.1,21 -38.325,42.175c0,0.35 -0.175,0.7 -0.175,1.05v40.25c0,2.45 -1.05,4.725 -2.8,6.3c-1.75,1.75 -4.2,2.45 -6.65,2.275c-4.55,-0.175 -8.05,-4.2 -8.05,-9.1v-18.2c0,-4.55 -2.8,-8.575 -7.175,-9.975c-4.375,-1.4 -8.925,0 -11.725,3.675l-20.3,27.125c-8.4,11.025 -13.65,24.15 -15.75,37.625c-3.325,1.575 -6.475,3.5 -9.45,5.95l-6.825,5.25c-0.175,0.175 -0.35,0.35 -0.525,0.525l-1.75,1.75c-1.05,1.05 -1.575,2.275 -1.575,3.675v56h-10.675c-2.975,0 -5.25,2.275 -5.25,5.25c0,2.975 2.275,5.25 5.25,5.25h15.75c2.975,0 5.25,-2.275 5.25,-5.25v-59.15l6.65,-5.075c13.825,-10.5 32.025,-12.6 47.95,-5.6l45.15,20.3c2.1,0.875 3.85,2.625 4.55,4.9c0.7,2.275 0.7,4.55 -0.175,6.65c-0.875,2.1 -2.625,3.675 -4.725,4.55c-2.1,0.875 -4.55,0.7 -6.65,-0.175l-35,-15.575c-2.625,-1.225 -5.775,0 -7,2.625c-1.225,2.625 0,5.775 2.625,7l35,15.575c4.725,2.1 9.975,2.275 14.7,0.35c0.7,-0.175 1.4,-0.525 1.925,-0.875c0.35,0 0.525,-0.175 0.7,-0.175l66.85,-28.35c2.1,-0.875 4.55,-0.875 6.65,0c2.1,0.875 3.85,2.625 4.725,4.725c0.875,2.1 0.875,4.55 0,6.65c-0.875,2.1 -2.625,3.85 -4.725,4.725l-98.7,41.65c-7.875,3.325 -16.975,3.15 -24.675,-0.7l-41.65,-20.3c-2.625,-1.225 -5.775,-0.175 -7,2.45c-1.225,2.625 -0.175,5.775 2.45,7l41.65,20.3c5.6,2.8 11.55,4.025 17.675,4.025c5.25,0 10.675,-1.05 15.75,-3.15l98.7,-41.65c4.725,-1.925 8.4,-5.775 10.325,-10.5c2.1,-4.725 2.1,-9.975 0.175,-14.7zM140.875,152.6l31.5,-13.825c6.3,-2.625 13.475,-0.35 17.15,5.25l-46.2,19.6c0.35,-3.85 -0.525,-7.7 -2.45,-11.025z" fill="#e74c3c"></path></g></g></g></svg>