<!DOCTYPE svg PUBLIC "-//W3C//DTD SVG 20010904//EN" "http://www.w3.org/TR/2001/REC-SVG-20010904/DTD/svg10.dtd">
<svg version="1.0" xmlns="http://www.w3.org/2000/svg" width="1442px" height="1442px" viewBox="0 0 14420 14420" preserveAspectRatio="xMidYMid meet">
<g id="layer101" fill="#ffffff" stroke="none">
 <path d="M12650 14407 c0 -7 -553 -565 -1229 -1241 l-1229 -1229 -94 60 c-799 518 -1677 850 -2603 987 -366 54 -478 61 -960 61 -482 0 -594 -7 -960 -61 -2280 -336 -4221 -1864 -5084 -4001 -237 -588 -377 -1159 -448 -1828 -14 -137 -18 -256 -18 -620 0 -482 7 -594 61 -960 336 -2280 1864 -4221 4001 -5084 588 -237 1159 -377 1828 -448 137 -14 256 -18 620 -18 482 0 594 7 960 61 1916 283 3611 1409 4617 3069 508 838 807 1740 915 2760 26 246 26 994 0 1240 -83 783 -265 1451 -584 2140 -116 253 -317 613 -455 817 -21 31 -38 61 -38 65 0 4 557 565 1237 1245 l1238 1238 -31 122 c-100 391 -293 728 -583 1019 -310 309 -661 502 -1098 603 -46 10 -63 11 -63 3z m-5605 -3946 c360 -52 644 -126 952 -247 747 -295 1404 -830 1846 -1505 288 -439 487 -932 581 -1439 55 -293 60 -362 60 -735 0 -373 -5 -442 -60 -735 -196 -1055 -825 -1993 -1731 -2584 -507 -330 -1034 -522 -1683 -613 -180 -25 -770 -25 -950 0 -465 65 -844 176 -1226 357 -646 306 -1214 801 -1607 1401 -288 439 -487 932 -581 1439 -55 293 -60 362 -60 735 0 373 5 442 60 735 196 1055 825 1993 1731 2584 553 360 1136 558 1848 630 22 2 184 2 360 1 257 -3 348 -7 460 -24z"/>
 </g>

</svg>