<!DOCTYPE svg PUBLIC "-//W3C//DTD SVG 20010904//EN" "http://www.w3.org/TR/2001/REC-SVG-20010904/DTD/svg10.dtd">
<svg version="1.0" xmlns="http://www.w3.org/2000/svg" width="300px" height="320px" viewBox="0 0 3000 3200" preserveAspectRatio="xMidYMid meet">
<g id="layer101" fill="#004a7c" stroke="none">
 <path d="M2285 3185 c-190 -60 -339 -217 -390 -410 -17 -69 -18 -188 -1 -260 l12 -50 -289 -173 -289 -173 -56 49 c-82 71 -164 120 -253 153 -365 133 -770 -32 -944 -386 -61 -124 -75 -184 -75 -335 0 -145 13 -205 69 -324 182 -389 652 -549 1038 -355 48 24 109 66 147 100 35 33 68 59 72 59 5 0 138 -77 295 -172 282 -169 287 -172 277 -197 -16 -42 -21 -191 -9 -256 18 -98 83 -218 160 -295 110 -109 234 -160 397 -160 158 0 276 50 392 165 57 58 82 92 115 162 l42 88 0 145 0 145 -42 88 c-97 203 -290 327 -508 327 -133 0 -244 -38 -352 -122 l-52 -40 -286 172 c-228 137 -285 175 -280 188 57 148 66 346 22 492 -14 47 -23 88 -19 92 9 9 543 329 560 335 6 3 30 -11 52 -31 53 -48 149 -95 229 -112 285 -60 556 93 657 372 33 89 34 260 3 352 -55 162 -191 299 -355 357 -59 21 -86 24 -184 24 -63 -1 -133 -7 -155 -14z m229 -250 c158 -41 257 -195 225 -348 -15 -69 -39 -114 -86 -158 -148 -142 -380 -107 -477 71 -37 69 -46 165 -22 238 31 93 126 178 223 201 56 13 73 13 137 -4z m-1686 -835 c141 -18 276 -104 354 -224 190 -294 27 -697 -310 -767 -80 -16 -223 -7 -294 20 -77 30 -167 98 -217 164 -122 161 -135 394 -33 567 72 122 219 222 352 239 36 5 67 9 70 9 3 1 38 -3 78 -8z m1710 -1254 c176 -63 255 -254 173 -421 -35 -70 -80 -113 -157 -146 -39 -18 -61 -21 -128 -17 -50 3 -94 11 -114 22 -54 28 -112 86 -140 140 -23 44 -27 63 -27 136 0 73 4 92 27 136 33 62 104 127 161 148 54 19 154 20 205 2z"/>
 </g>

</svg>