<!DOCTYPE svg PUBLIC "-//W3C//DTD SVG 20010904//EN" "http://www.w3.org/TR/2001/REC-SVG-20010904/DTD/svg10.dtd">
<svg version="1.1" xmlns="http://www.w3.org/2000/svg" xmlns:xlink="http://www.w3.org/1999/xlink" viewBox="0 0 224 224"><g fill="none" fill-rule="nonzero" stroke="none" stroke-width="1" stroke-linecap="butt" stroke-linejoin="miter" stroke-miterlimit="10" stroke-dasharray="" stroke-dashoffset="0" font-family="none" font-weight="none" font-size="none" text-anchor="none" style="mix-blend-mode: normal"><path d="M0,224v-224h224v224z" fill="none"></path><g id="Layer_1"><g><g fill="#ffffff"><path d="M190.575,190.575v0c-4.025,4.025 -10.675,4.025 -14.875,0l-22.225,-22.225c-4.025,-4.025 -4.025,-10.675 0,-14.875v0c4.025,-4.025 10.675,-4.025 14.875,0l22.225,22.225c4.025,4.2 4.025,10.85 0,14.875z"></path></g><g fill="#ffffff"><ellipse cx="-0.03751" cy="73.9789" transform="rotate(-45) scale(1.74998,1.74998)" rx="35" ry="35"></ellipse></g><g fill="#ffffff"><ellipse cx="-0.03751" cy="73.9789" transform="rotate(-45) scale(1.74998,1.74998)" rx="35" ry="35"></ellipse></g><g fill="#3498db"><path d="M91.525,147.525c-2.975,0 -5.25,-2.275 -5.25,-5.25c0,-2.975 2.275,-5.25 5.25,-5.25c12.075,0 23.625,-4.725 32.2,-13.3c11.2,-11.2 15.75,-27.125 12.075,-42.7c-0.7,-2.8 1.05,-5.6 3.85,-6.3c2.8,-0.7 5.6,1.05 6.3,3.85c4.55,19.075 -0.875,38.85 -14.7,52.675c-10.675,10.5 -24.675,16.275 -39.725,16.275z"></path></g><g fill="#3498db"><path d="M127.75,61.25c-1.4,0 -2.625,-0.525 -3.675,-1.575l-0.35,-0.175c-2.1,-2.1 -2.1,-5.425 0,-7.35c2.1,-2.1 5.425,-2.1 7.35,0l0.35,0.35c2.1,2.1 2.1,5.425 0,7.35c-1.05,0.875 -2.275,1.4 -3.675,1.4z"></path></g><g fill="#333333"><path d="M91.525,158.025c-16.975,0 -34.125,-6.475 -47.075,-19.425c-25.9,-25.9 -25.9,-68.075 0,-93.975c25.9,-25.9 68.075,-25.9 93.975,0v0c26.075,25.9 26.075,68.075 0.175,93.975c-12.95,12.95 -29.925,19.425 -47.075,19.425zM91.525,35.7c-14.35,0 -28.7,5.425 -39.55,16.45c-21.875,21.875 -21.875,57.4 0,79.275c21.875,21.525 57.4,21.525 79.275,-0.175c21.875,-21.875 21.875,-57.4 0,-79.275c-11.025,-10.85 -25.375,-16.275 -39.725,-16.275z"></path></g><path d="M194.25,172.025l-22.225,-22.225c-2.975,-2.975 -7,-4.55 -11.2,-4.55c-2.45,0 -4.725,0.525 -6.825,1.575l-4.375,-4.375c-2.1,-2.1 -5.425,-2.1 -7.35,0c-2.1,2.1 -2.1,5.425 0,7.35l4.375,4.375c-1.05,2.1 -1.575,4.375 -1.575,6.825c0,4.2 1.575,8.225 4.55,11.2l22.4,22.05c3.15,3.15 7.175,4.55 11.2,4.55c4.025,0 8.05,-1.575 11.2,-4.55v0c5.95,-6.125 5.95,-16.1 -0.175,-22.225zM186.9,186.9c-2.1,2.1 -5.425,2.1 -7.35,0l-22.4,-22.225c-1.05,-1.05 -1.575,-2.275 -1.575,-3.675c0,-1.4 0.525,-2.8 1.575,-3.675c1.05,-1.05 2.275,-1.575 3.675,-1.575c1.4,0 2.8,0.525 3.675,1.575l22.225,22.225c2.275,1.925 2.275,5.25 0.175,7.35z" fill="#333333"></path></g></g></g></svg>