<!DOCTYPE svg PUBLIC "-//W3C//DTD SVG 20010904//EN" "http://www.w3.org/TR/2001/REC-SVG-20010904/DTD/svg10.dtd">
<svg version="1.0" xmlns="http://www.w3.org/2000/svg" viewBox="0 0 5120 5120" preserveAspectRatio="xMidYMid meet">
<g id="layer101" fill="#2f2f2f" stroke="none">
 <path d="M1988 5045 c-20 -14 -43 -35 -50 -47 -9 -16 -15 -94 -19 -243 -6 -191 -10 -233 -32 -318 -48 -181 -154 -371 -276 -491 l-59 -59 -28 22 c-46 36 -109 29 -180 -20 -153 -107 -355 -303 -467 -451 -375 -500 -512 -1142 -372 -1746 122 -525 458 -1000 920 -1300 323 -211 708 -328 1110 -339 83 -3 173 0 200 6 28 5 99 17 159 26 722 108 1332 605 1610 1313 57 146 86 265 228 937 114 541 133 643 133 720 0 117 -26 173 -128 275 -116 117 -107 78 -107 446 0 339 -5 395 -45 481 -30 66 -119 161 -183 196 -88 48 -148 57 -372 57 -233 0 -270 7 -339 67 -71 61 -84 97 -91 258 -5 152 -11 169 -64 210 l-33 25 -739 -1 -739 0 -37 -24z"/>
 </g>
<g id="layer102" fill="#ff4a38" stroke="none">
 <path d="M1988 5045 c-20 -14 -43 -35 -50 -47 -9 -16 -15 -94 -19 -243 -6 -191 -10 -233 -32 -318 -48 -181 -143 -353 -269 -483 -64 -66 -68 -73 -58 -98 27 -73 7 -111 -99 -188 -108 -78 -284 -248 -366 -353 -259 -332 -395 -725 -395 -1145 0 -636 315 -1216 852 -1567 405 -266 904 -360 1383 -262 505 103 943 420 1211 875 127 216 175 362 274 839 43 209 108 520 144 692 54 255 64 317 55 339 -5 16 -50 69 -98 119 -137 142 -134 130 -141 570 -5 355 -5 360 -28 398 -13 20 -42 48 -65 61 -40 23 -51 24 -277 28 -211 4 -242 7 -300 27 -90 32 -146 67 -210 132 -105 106 -150 236 -150 434 0 118 14 160 59 185 12 6 21 15 21 20 0 6 -258 10 -702 9 l-703 0 -37 -24z"/>
 </g>
<g id="layer103" fill="#ffffff" stroke="none">
 <path d="M1988 5045 c-20 -14 -43 -35 -50 -47 -9 -16 -15 -94 -19 -243 -6 -191 -10 -233 -32 -318 -48 -181 -143 -353 -269 -483 -64 -66 -68 -73 -58 -98 27 -73 7 -111 -99 -188 -108 -78 -284 -248 -366 -353 -259 -332 -395 -725 -395 -1145 0 -636 315 -1216 852 -1567 405 -266 904 -360 1383 -262 505 103 943 420 1211 875 127 216 175 362 274 839 43 209 108 520 144 692 54 255 64 317 55 339 -5 16 -50 69 -98 119 -137 142 -134 130 -141 570 -5 355 -5 360 -28 398 -13 20 -42 48 -65 61 -40 23 -51 24 -277 28 -211 4 -242 7 -300 27 -90 32 -146 67 -210 132 -105 106 -150 236 -150 434 0 118 14 160 59 185 12 6 21 15 21 20 0 6 -258 10 -702 9 l-703 0 -37 -24z m1121 -1970 c24 -24 343 -563 405 -682 21 -42 20 -85 -3 -131 -62 -121 -377 -652 -402 -677 l-29 -30 -430 0 -430 0 -29 30 c-16 17 -116 179 -222 360 -187 320 -193 332 -193 385 0 53 6 65 193 385 194 332 219 370 256 386 11 4 208 7 437 6 l418 -2 29 -30z"/>
 <path d="M2538 2701 c-77 -25 -118 -52 -177 -116 -68 -76 -95 -146 -95 -255 0 -65 6 -99 23 -143 32 -81 115 -168 200 -209 60 -30 75 -33 161 -33 86 0 101 3 160 31 95 46 143 93 187 182 36 72 38 81 38 171 0 87 -3 102 -32 163 -84 177 -286 268 -465 209z"/>
 </g>

</svg>