<!DOCTYPE svg PUBLIC "-//W3C//DTD SVG 20010904//EN" "http://www.w3.org/TR/2001/REC-SVG-20010904/DTD/svg10.dtd">
<svg version="1.1" xmlns="http://www.w3.org/2000/svg" xmlns:xlink="http://www.w3.org/1999/xlink" viewBox="0 0 224 224"><g fill="none" fill-rule="nonzero" stroke="none" stroke-width="1" stroke-linecap="butt" stroke-linejoin="miter" stroke-miterlimit="10" stroke-dasharray="" stroke-dashoffset="0" font-family="none" font-weight="none" font-size="none" text-anchor="none" style="mix-blend-mode: normal"><path d="M0,224v-224h224v224z" fill="none"></path><g id="Слой_1"><path d="M203.35,64.925c3.15,-2.975 4.9,-7.175 4.9,-11.55v-5.95c0,-17.675 -43.05,-32.025 -96.25,-32.025c-53.2,0 -96.25,14.175 -96.25,32.025v5.95c0,4.375 1.75,8.575 4.9,11.55l65.975,66.675c5.95,5.95 9.275,14.175 9.275,22.575v40.425c0,2.45 2.45,3.85 4.725,2.8l22.925,-11.55c2.8,-1.4 4.375,-4.2 4.375,-7.175v-24.5c0,-8.4 3.325,-16.625 9.275,-22.575l66.15,-66.675" fill="#3498db"></path><path d="M112,15.4c-2.975,0 -6.125,0 -9.1,0.175c46.025,2.275 81.2,15.575 81.2,31.675v5.95c0,4.375 -1.75,8.575 -4.9,11.55l-53.025,66.85c-5.425,7.35 -9.275,14.175 -9.275,22.575v24.675c0,0 0.525,8.575 -1.4,11.025l8.05,-4.025c2.8,-1.4 4.375,-4.2 4.375,-7.175v-24.5c0,-8.4 3.325,-16.625 9.275,-22.575l66.15,-66.675c3.15,-2.975 4.9,-7.175 4.9,-11.55v-5.95c0,-17.675 -43.05,-32.025 -96.25,-32.025" fill="#3498db"></path><path d="M99.225,203v0c-4.725,0 -8.4,-3.85 -8.4,-8.4v-40.425c0,-7.175 -2.8,-13.825 -7.7,-18.9l-66.15,-66.675c-4.025,-3.85 -6.475,-9.45 -6.475,-15.225v-5.95c0,-24.325 52.325,-37.45 101.5,-37.45c49.175,0 101.5,13.125 101.5,37.275v5.95c0,5.775 -2.45,11.375 -6.475,15.225l-65.975,66.5c-5.075,5.075 -7.7,11.725 -7.7,18.9v24.675c0,5.075 -2.8,9.625 -7.35,11.9l-22.925,11.55c-1.4,0.875 -2.625,1.05 -3.85,1.05zM112,20.475c-56.35,0 -91,15.575 -91,26.775v5.95c0,2.975 1.225,5.775 3.325,7.7l66.15,66.675c7,7 10.85,16.45 10.85,26.25v37.1l20.125,-9.975c0.875,-0.525 1.575,-1.4 1.575,-2.45v-24.325c0,-9.975 3.85,-19.25 10.85,-26.25l65.8,-66.675c2.1,-2.1 3.325,-4.9 3.325,-7.875v-5.95c0,-11.2 -34.65,-26.95 -91,-26.95z" fill="#333333"></path><path d="M112,52.15c-25.375,0 -49.175,-3.5 -65.275,-9.8l-3.85,-1.575l3.85,-1.575c16.1,-5.95 39.9,-9.45 65.275,-9.45c25.375,0 49.175,3.5 65.275,9.8l3.85,1.575l-3.85,1.575c-16.1,5.95 -39.9,9.45 -65.275,9.45z" fill="#ffffff"></path><path d="M112,57.4c-25.9,0 -50.4,-3.675 -67.2,-10.15l-3.85,-1.575c-2.1,-0.7 -3.325,-2.8 -3.325,-4.9c0,-2.1 1.4,-4.2 3.325,-4.9l3.85,-1.575c2.8,-1.05 5.775,0.35 6.825,2.975c0.175,0.35 0.175,0.7 0.35,1.225c15.4,5.25 37.1,8.225 60.2,8.225c23.1,0 44.625,-2.975 60.2,-8.225c0,-0.35 0.175,-0.7 0.35,-1.225c1.05,-2.625 4.025,-4.025 6.825,-2.975l3.85,1.575c2.1,0.7 3.325,2.8 3.325,4.9c0,2.1 -1.4,4.2 -3.325,4.9l-3.85,1.575c-17.15,6.475 -41.65,10.15 -67.55,10.15z" fill="#333333"></path><path d="M112,79.975c-2.975,0 -5.25,-2.275 -5.25,-5.25c0,-2.975 2.275,-5.25 5.25,-5.25c34.825,0 55.65,-6.475 62.825,-9.275c2.8,-1.05 5.775,0.35 6.825,2.975c1.05,2.625 -0.35,5.775 -2.975,6.825c-16.625,6.3 -40.95,9.975 -66.675,9.975z" fill="#333333"></path></g></g></svg>