<!DOCTYPE svg PUBLIC "-//W3C//DTD SVG 20010904//EN" "http://www.w3.org/TR/2001/REC-SVG-20010904/DTD/svg10.dtd">
<svg version="1.0" xmlns="http://www.w3.org/2000/svg" width="449px" height="449px" viewBox="0 0 4490 4490" preserveAspectRatio="xMidYMid meet">
<g id="layer101" fill="#004a7c" stroke="none">
 <path d="M2080 4484 c-543 -50 -1011 -258 -1386 -616 -382 -365 -627 -860 -683 -1380 -14 -124 -14 -377 0 -493 120 -1042 921 -1851 1959 -1981 135 -17 381 -18 518 -3 930 101 1703 774 1932 1683 49 193 64 321 64 546 0 371 -65 659 -224 985 -324 667 -953 1128 -1690 1240 -103 15 -402 27 -490 19z m-1135 -921 c73 -332 257 -520 600 -611 185 -49 284 -57 700 -57 321 0 410 3 505 18 245 37 425 106 551 210 115 96 207 259 245 435 l18 83 39 -38 c21 -21 69 -74 107 -118 649 -764 604 -1888 -105 -2600 -296 -298 -673 -488 -1091 -550 -144 -21 -406 -21 -544 0 -439 68 -820 266 -1121 583 -346 363 -531 826 -531 1330 1 427 134 817 400 1167 38 49 200 225 208 225 1 0 10 -35 19 -77z"/>
 <path d="M2065 2311 c-284 -78 -477 -279 -540 -565 -21 -94 -16 -255 10 -351 53 -192 202 -372 378 -458 127 -62 175 -72 337 -72 136 0 150 2 233 32 122 43 189 85 282 178 91 91 144 174 182 290 25 73 27 94 27 230 0 136 -2 157 -27 230 -38 115 -91 199 -182 290 -92 92 -175 144 -290 182 -110 36 -305 43 -410 14z"/>
 </g>

</svg>