<!DOCTYPE svg PUBLIC "-//W3C//DTD SVG 20010904//EN" "http://www.w3.org/TR/2001/REC-SVG-20010904/DTD/svg10.dtd">
<svg version="1.0" xmlns="http://www.w3.org/2000/svg" width="448px" height="298px" viewBox="0 0 4480 2980" preserveAspectRatio="xMidYMid meet">
<g id="layer101" fill="#aeaeae" stroke="none">
 <path d="M2005 2969 c-433 -59 -907 -279 -1330 -617 -243 -193 -518 -475 -600 -615 -92 -158 -92 -336 1 -494 38 -66 165 -215 284 -333 451 -453 992 -766 1515 -877 121 -26 146 -27 365 -27 219 0 244 1 364 27 325 70 631 202 939 406 302 201 575 444 784 698 189 231 197 446 26 673 -70 91 -235 268 -345 367 -452 410 -924 669 -1398 768 -106 23 -156 27 -330 30 -113 2 -236 -1 -275 -6z m420 -575 c352 -67 646 -360 719 -717 21 -98 21 -276 0 -374 -59 -289 -272 -548 -544 -664 -228 -97 -509 -95 -734 5 -206 91 -398 289 -481 495 -90 221 -90 481 0 702 63 156 197 319 340 414 213 142 443 188 700 139z"/>
 <path d="M2085 2031 c-93 -26 -163 -69 -241 -146 -113 -111 -164 -233 -164 -393 0 -162 51 -286 164 -397 115 -114 237 -165 396 -165 78 0 166 14 184 31 4 4 -5 14 -22 23 -48 25 -119 111 -138 169 -27 82 -22 167 15 242 36 73 83 118 157 152 106 48 210 38 313 -31 l51 -35 0 39 c0 224 -187 455 -416 514 -81 21 -222 20 -299 -3z"/>
 </g>

</svg>